REM DIRINDEX 1\2,1\3,1\4,1\5
REM DIRNAME cjc005,folder01,folder02,folder03,folder04
TITLE ""
FILE "P1Q_t_1190-1199.mp3" MP3
  TRACK 01 AUDIO
    TITLE "3:cjc005_4476"
    INDEX 01 00:00:00
  TRACK 02 AUDIO
    TITLE "0:"
    INDEX 01 00:01:11
  TRACK 03 AUDIO
    TITLE "4:cjc005_4477"
    INDEX 01 00:01:36
  TRACK 04 AUDIO
    TITLE "0:"
    INDEX 01 00:02:65
  TRACK 05 AUDIO
    TITLE "5:cjc005_4478"
    INDEX 01 00:03:15
  TRACK 06 AUDIO
    TITLE "0:"
    INDEX 01 00:08:05
  TRACK 07 AUDIO
    TITLE "3:cjc005_4479"
    INDEX 01 00:08:56
  TRACK 08 AUDIO
    TITLE "0:"
    INDEX 01 00:10:02
  TRACK 09 AUDIO
    TITLE "4:cjc005_4480"
    INDEX 01 00:10:29
  TRACK 10 AUDIO
    TITLE "0:"
    INDEX 01 00:12:30
  TRACK 11 AUDIO
    TITLE "5:cjc005_4481"
    INDEX 01 00:12:56
  TRACK 12 AUDIO
    TITLE "0:"
    INDEX 01 00:15:66
  TRACK 13 AUDIO
    TITLE "3:cjc005_4482"
    INDEX 01 00:16:40
  TRACK 14 AUDIO
    TITLE "0:"
    INDEX 01 00:17:53
  TRACK 15 AUDIO
    TITLE "4:cjc005_4483"
    INDEX 01 00:17:74
  TRACK 16 AUDIO
    TITLE "0:"
    INDEX 01 00:19:30
  TRACK 17 AUDIO
    TITLE "5:cjc005_4484"
    INDEX 01 00:19:56
  TRACK 18 AUDIO
    TITLE "0:"
    INDEX 01 00:23:06
  TRACK 19 AUDIO
    TITLE "3:cjc005_4485"
    INDEX 01 00:23:55
  TRACK 20 AUDIO
    TITLE "0:"
    INDEX 01 00:24:72
  TRACK 21 AUDIO
    TITLE "4:cjc005_4486"
    INDEX 01 00:25:19
  TRACK 22 AUDIO
    TITLE "0:"
    INDEX 01 00:26:38
  TRACK 23 AUDIO
    TITLE "5:cjc005_4487"
    INDEX 01 00:26:64
  TRACK 24 AUDIO
    TITLE "0:"
    INDEX 01 00:32:50
  TRACK 25 AUDIO
    TITLE "3:cjc005_4488"
    INDEX 01 00:33:26
  TRACK 26 AUDIO
    TITLE "0:"
    INDEX 01 00:34:53
  TRACK 27 AUDIO
    TITLE "4:cjc005_4489"
    INDEX 01 00:35:00
  TRACK 28 AUDIO
    TITLE "0:"
    INDEX 01 00:35:74
  TRACK 29 AUDIO
    TITLE "5:cjc005_4490"
    INDEX 01 00:36:23
  TRACK 30 AUDIO
    TITLE "0:"
    INDEX 01 00:40:26
  TRACK 31 AUDIO
    TITLE "3:cjc005_4491"
    INDEX 01 00:40:73
  TRACK 32 AUDIO
    TITLE "0:"
    INDEX 01 00:42:00
  TRACK 33 AUDIO
    TITLE "4:cjc005_4492"
    INDEX 01 00:42:27
  TRACK 34 AUDIO
    TITLE "0:"
    INDEX 01 00:43:42
  TRACK 35 AUDIO
    TITLE "5:cjc005_4493"
    INDEX 01 00:43:66
  TRACK 36 AUDIO
    TITLE "0:"
    INDEX 01 00:47:23
  TRACK 37 AUDIO
    TITLE "3:cjc005_4494"
    INDEX 01 00:47:72
  TRACK 38 AUDIO
    TITLE "0:"
    INDEX 01 00:49:39
  TRACK 39 AUDIO
    TITLE "4:cjc005_4495"
    INDEX 01 00:49:65
  TRACK 40 AUDIO
    TITLE "0:"
    INDEX 01 00:50:66
  TRACK 41 AUDIO
    TITLE "5:cjc005_4496"
    INDEX 01 00:51:16
  TRACK 42 AUDIO
    TITLE "0:"
    INDEX 01 00:54:66
  TRACK 43 AUDIO
    TITLE "3:cjc005_4497"
    INDEX 01 00:55:40
  TRACK 44 AUDIO
    TITLE "0:"
    INDEX 01 00:56:41
  TRACK 45 AUDIO
    TITLE "4:cjc005_4498"
    INDEX 01 00:56:71
  TRACK 46 AUDIO
    TITLE "0:"
    INDEX 01 00:58:26
  TRACK 47 AUDIO
    TITLE "5:cjc005_4499"
    INDEX 01 00:58:48
  TRACK 48 AUDIO
    TITLE "0:"
    INDEX 01 01:02:14
  TRACK 49 AUDIO
    TITLE "3:cjc005_4500"
    INDEX 01 01:02:63
  TRACK 50 AUDIO
    TITLE "0:"
    INDEX 01 01:04:00
  TRACK 51 AUDIO
    TITLE "4:cjc005_4501"
    INDEX 01 01:04:27
  TRACK 52 AUDIO
    TITLE "0:"
    INDEX 01 01:05:60
  TRACK 53 AUDIO
    TITLE "5:cjc005_4502"
    INDEX 01 01:06:06
  TRACK 54 AUDIO
    TITLE "0:"
    INDEX 01 01:10:45
  TRACK 55 AUDIO
    TITLE "3:cjc005_4503"
    INDEX 01 01:11:27
  TRACK 56 AUDIO
    TITLE "0:"
    INDEX 01 01:12:50
  TRACK 57 AUDIO
    TITLE "4:cjc005_4504"
    INDEX 01 01:13:00
  TRACK 58 AUDIO
    TITLE "0:"
    INDEX 01 01:14:27
  TRACK 59 AUDIO
    TITLE "5:cjc005_4505"
    INDEX 01 01:14:57
  TRACK 60 AUDIO
    TITLE "0:"
    INDEX 01 01:18:29
